M48
; DRILL file {KiCad 9.0.7} date 2026-01-19T08:33:36-0800
; FORMAT={-:-/ absolute / metric / decimal}
; #@! TF.CreationDate,2026-01-19T08:33:36-08:00
; #@! TF.GenerationSoftware,Kicad,Pcbnew,9.0.7
; #@! TF.FileFunction,MixedPlating,1,2
FMAT,2
METRIC
; #@! TA.AperFunction,Plated,PTH,ViaDrill
T1C0.300
; #@! TA.AperFunction,Plated,PTH,ComponentDrill
T2C0.800
; #@! TA.AperFunction,Plated,PTH,ComponentDrill
T3C1.000
; #@! TA.AperFunction,Plated,PTH,ComponentDrill
T4C1.100
; #@! TA.AperFunction,Plated,PTH,ComponentDrill
T5C1.300
; #@! TA.AperFunction,NonPlated,NPTH,ComponentDrill
T6C3.200
%
G90
G05
T1
X52.9Y-87.5
X53.5Y-88.1
X54.5Y-60.0
X54.5Y-79.3
X54.5Y-80.0
X55.5Y-64.0
X55.5Y-90.1
X59.5Y-60.0
X77.5Y-125.1
X79.4Y-125.9
X83.5Y-113.0
X83.7Y-125.9
X89.6Y-116.2
X90.5Y-113.0
X92.7Y-115.0
X107.5Y-113.0
X114.5Y-113.0
X119.5Y-113.0
X126.5Y-113.0
X131.5Y-113.0
X138.5Y-113.0
X143.5Y-113.0
X150.5Y-113.0
X155.5Y-113.0
X162.5Y-113.0
X167.5Y-113.0
X168.5Y-113.0
X174.5Y-60.0
X174.5Y-101.0
X174.5Y-125.0
X179.5Y-84.0
X179.5Y-113.0
X181.3Y-109.7
X184.2Y-62.4
X185.4Y-55.7
X185.4Y-58.3
X185.6Y-106.0
X186.4Y-62.0
X187.4Y-65.6
X187.6Y-117.0
X188.6Y-109.0
X189.5Y-133.0
X191.0Y-115.4
X191.6Y-89.9
X191.6Y-102.0
X192.9Y-113.5
X193.5Y-88.0
X193.6Y-62.0
X194.4Y-118.8
X195.4Y-81.3
X195.4Y-111.5
X195.4Y-120.0
X195.5Y-133.0
X196.1Y-120.7
X196.5Y-127.0
X197.6Y-90.0
X197.6Y-90.7
X197.6Y-100.0
X200.2Y-120.7
X201.5Y-140.3
X203.6Y-126.0
X204.1Y-112.5
X205.0Y-95.3
X205.4Y-121.0
X205.5Y-124.1
X205.6Y-94.0
X207.1Y-142.5
X207.5Y-128.0
X207.5Y-136.2
X207.9Y-98.7
X208.5Y-126.0
X208.5Y-140.1
X208.5Y-154.0
X208.6Y-79.0
X208.6Y-94.0
X208.6Y-101.5
X209.5Y-132.3
X209.5Y-144.9
X209.6Y-134.1
X210.6Y-96.0
X210.6Y-104.1
X210.6Y-127.0
X210.8Y-93.9
X211.4Y-92.7
X211.4Y-98.7
X211.4Y-143.0
X211.5Y-125.8
X211.7Y-80.3
X212.1Y-147.5
X212.4Y-96.3
X212.4Y-127.9
X212.5Y-127.3
X213.5Y-132.1
X213.5Y-142.8
X213.6Y-118.0
X214.5Y-154.0
X217.6Y-84.0
X217.6Y-95.0
X218.5Y-83.1
X218.8Y-95.9
X220.5Y-89.1
X221.6Y-126.0
X223.4Y-118.4
X223.4Y-132.9
X224.4Y-95.9
X224.4Y-107.0
X224.4Y-121.2
X225.4Y-83.1
X225.4Y-105.1
X225.4Y-116.1
X225.9Y-117.8
X227.1Y-95.9
X227.3Y-85.3
X229.5Y-72.1
X229.5Y-73.9
X229.5Y-88.9
X230.4Y-105.2
X230.6Y-78.0
X231.2Y-86.1
X231.2Y-92.3
X231.4Y-101.1
X232.4Y-108.0
X235.5Y-74.2
X235.5Y-89.2
T2
X54.5Y-80.0
X56.133Y-72.5
X196.5Y-110.0
X196.5Y-112.54
X196.5Y-115.08
X204.12Y-110.0
X204.12Y-112.54
X204.12Y-115.08
T3
X54.5Y-143.0
X54.5Y-145.54
X54.5Y-148.08
X54.5Y-150.62
X54.5Y-153.16
X66.5Y-60.0
X66.5Y-72.0
X66.5Y-84.0
X66.5Y-101.0
X66.5Y-113.0
X66.5Y-125.0
X71.5Y-60.0
X71.5Y-72.0
X71.5Y-84.0
X71.5Y-101.0
X71.5Y-113.0
X71.5Y-125.0
X78.5Y-60.0
X78.5Y-72.0
X78.5Y-84.0
X78.5Y-101.0
X78.5Y-113.0
X78.5Y-125.0
X83.5Y-60.0
X83.5Y-72.0
X83.5Y-84.0
X83.5Y-101.0
X83.5Y-113.0
X83.5Y-125.0
X90.5Y-60.0
X90.5Y-72.0
X90.5Y-84.0
X90.5Y-101.0
X90.5Y-113.0
X90.5Y-125.0
X95.5Y-60.0
X95.5Y-72.0
X95.5Y-84.0
X95.5Y-101.0
X95.5Y-113.0
X95.5Y-125.0
X102.5Y-60.0
X102.5Y-72.0
X102.5Y-84.0
X102.5Y-101.0
X102.5Y-113.0
X102.5Y-125.0
X107.5Y-60.0
X107.5Y-72.0
X107.5Y-84.0
X107.5Y-101.0
X107.5Y-113.0
X107.5Y-125.0
X114.5Y-60.0
X114.5Y-72.0
X114.5Y-84.0
X114.5Y-101.0
X114.5Y-113.0
X114.5Y-125.0
X119.5Y-60.0
X119.5Y-72.0
X119.5Y-84.0
X119.5Y-101.0
X119.5Y-113.0
X119.5Y-125.0
X126.5Y-60.0
X126.5Y-72.0
X126.5Y-84.0
X126.5Y-101.0
X126.5Y-113.0
X126.5Y-125.0
X131.5Y-60.0
X131.5Y-72.0
X131.5Y-84.0
X131.5Y-101.0
X131.5Y-113.0
X131.5Y-125.0
X138.5Y-60.0
X138.5Y-72.0
X138.5Y-84.0
X138.5Y-101.0
X138.5Y-113.0
X138.5Y-125.0
X143.5Y-60.0
X143.5Y-72.0
X143.5Y-84.0
X143.5Y-101.0
X143.5Y-113.0
X143.5Y-125.0
X150.5Y-60.0
X150.5Y-72.0
X150.5Y-84.0
X150.5Y-101.0
X150.5Y-113.0
X150.5Y-125.0
X155.5Y-60.0
X155.5Y-72.0
X155.5Y-84.0
X155.5Y-101.0
X155.5Y-113.0
X155.5Y-125.0
X162.5Y-60.0
X162.5Y-72.0
X162.5Y-84.0
X162.5Y-101.0
X162.5Y-113.0
X162.5Y-125.0
X167.5Y-60.0
X167.5Y-72.0
X167.5Y-84.0
X167.5Y-101.0
X167.5Y-113.0
X167.5Y-125.0
X174.5Y-60.0
X174.5Y-72.0
X174.5Y-84.0
X174.5Y-101.0
X174.5Y-113.0
X174.5Y-125.0
X179.5Y-60.0
X179.5Y-72.0
X179.5Y-84.0
X179.5Y-101.0
X179.5Y-113.0
X179.5Y-125.0
T4
X213.5Y-57.0
X216.04Y-57.0
X218.58Y-57.0
X241.5Y-78.0
X241.5Y-80.54
X241.5Y-83.08
X241.5Y-93.0
X241.5Y-95.54
X241.5Y-98.08
X241.5Y-108.0
X241.5Y-110.54
X241.5Y-113.08
X241.5Y-123.0
X241.5Y-125.54
X241.5Y-128.08
T5
X54.5Y-60.0
X54.5Y-97.0
X59.5Y-60.0
X59.5Y-97.0
T6
X52.5Y-49.0
X52.5Y-161.0
X244.5Y-49.0
X244.5Y-161.0
M30
