%TF.GenerationSoftware,KiCad,Pcbnew,9.0.7*%
%TF.CreationDate,2026-01-19T08:33:36-08:00*%
%TF.ProjectId,softstart,736f6674-7374-4617-9274-2e6b69636164,B*%
%TF.SameCoordinates,Original*%
%TF.FileFunction,Soldermask,Top*%
%TF.FilePolarity,Negative*%
%FSLAX46Y46*%
G04 Gerber Fmt 4.6, Leading zero omitted, Abs format (unit mm)*
G04 Created by KiCad (PCBNEW 9.0.7) date 2026-01-19 08:33:36*
%MOMM*%
%LPD*%
G01*
G04 APERTURE LIST*
G04 Aperture macros list*
%AMRoundRect*
0 Rectangle with rounded corners*
0 $1 Rounding radius*
0 $2 $3 $4 $5 $6 $7 $8 $9 X,Y pos of 4 corners*
0 Add a 4 corners polygon primitive as box body*
4,1,4,$2,$3,$4,$5,$6,$7,$8,$9,$2,$3,0*
0 Add four circle primitives for the rounded corners*
1,1,$1+$1,$2,$3*
1,1,$1+$1,$4,$5*
1,1,$1+$1,$6,$7*
1,1,$1+$1,$8,$9*
0 Add four rect primitives between the rounded corners*
20,1,$1+$1,$2,$3,$4,$5,0*
20,1,$1+$1,$4,$5,$6,$7,0*
20,1,$1+$1,$6,$7,$8,$9,0*
20,1,$1+$1,$8,$9,$2,$3,0*%
G04 Aperture macros list end*
%ADD10RoundRect,0.250000X-0.250000X-0.475000X0.250000X-0.475000X0.250000X0.475000X-0.250000X0.475000X0*%
%ADD11RoundRect,0.250000X-0.325000X-0.650000X0.325000X-0.650000X0.325000X0.650000X-0.325000X0.650000X0*%
%ADD12RoundRect,0.250000X-0.750000X-0.750000X0.750000X-0.750000X0.750000X0.750000X-0.750000X0.750000X0*%
%ADD13C,2.000000*%
%ADD14RoundRect,0.250000X-1.000000X-0.900000X1.000000X-0.900000X1.000000X0.900000X-1.000000X0.900000X0*%
%ADD15RoundRect,0.200000X-0.300000X-0.200000X0.300000X-0.200000X0.300000X0.200000X-0.300000X0.200000X0*%
%ADD16RoundRect,0.250000X-1.000000X-0.650000X1.000000X-0.650000X1.000000X0.650000X-1.000000X0.650000X0*%
%ADD17RoundRect,0.243750X-0.243750X-0.456250X0.243750X-0.456250X0.243750X0.456250X-0.243750X0.456250X0*%
%ADD18RoundRect,0.250000X-1.050000X-1.050000X1.050000X-1.050000X1.050000X1.050000X-1.050000X1.050000X0*%
%ADD19C,2.600000*%
%ADD20R,1.700000X1.700000*%
%ADD21C,1.700000*%
%ADD22R,1.905000X2.000000*%
%ADD23O,1.905000X2.000000*%
%ADD24RoundRect,0.150000X-0.587500X-0.150000X0.587500X-0.150000X0.587500X0.150000X-0.587500X0.150000X0*%
%ADD25RoundRect,0.250000X-0.262500X-0.450000X0.262500X-0.450000X0.262500X0.450000X-0.262500X0.450000X0*%
%ADD26RoundRect,0.250000X-0.362500X-1.425000X0.362500X-1.425000X0.362500X1.425000X-0.362500X1.425000X0*%
%ADD27C,1.800000*%
%ADD28RoundRect,0.100000X-0.637500X-0.100000X0.637500X-0.100000X0.637500X0.100000X-0.637500X0.100000X0*%
%ADD29RoundRect,0.150000X-0.512500X-0.150000X0.512500X-0.150000X0.512500X0.150000X-0.512500X0.150000X0*%
%ADD30RoundRect,0.250000X-0.550000X-0.550000X0.550000X-0.550000X0.550000X0.550000X-0.550000X0.550000X0*%
%ADD31C,1.600000*%
%ADD32RoundRect,0.375000X-0.625000X-0.375000X0.625000X-0.375000X0.625000X0.375000X-0.625000X0.375000X0*%
%ADD33RoundRect,0.500000X-0.500000X-1.400000X0.500000X-1.400000X0.500000X1.400000X-0.500000X1.400000X0*%
%ADD34C,3.200000*%
G04 APERTURE END LIST*
D10*
%TO.C,C1*%
X187550000Y-84000000D03*
X189450000Y-84000000D03*
%TD*%
%TO.C,C2*%
X207550000Y-84000000D03*
X209450000Y-84000000D03*
%TD*%
%TO.C,C3*%
X197550000Y-90000000D03*
X199450000Y-90000000D03*
%TD*%
%TO.C,C4*%
X197550000Y-100000000D03*
X199450000Y-100000000D03*
%TD*%
%TO.C,C5*%
X222550000Y-127000000D03*
X224450000Y-127000000D03*
%TD*%
D11*
%TO.C,C8*%
X202025000Y-65000000D03*
X204975000Y-65000000D03*
%TD*%
D10*
%TO.C,C9*%
X224550000Y-65000000D03*
X226450000Y-65000000D03*
%TD*%
%TO.C,C10*%
X217550000Y-84000000D03*
X219450000Y-84000000D03*
%TD*%
%TO.C,C11*%
X217550000Y-95000000D03*
X219450000Y-95000000D03*
%TD*%
%TO.C,C12*%
X217550000Y-106000000D03*
X219450000Y-106000000D03*
%TD*%
%TO.C,C13*%
X217550000Y-117000000D03*
X219450000Y-117000000D03*
%TD*%
%TO.C,C14*%
X223550000Y-89000000D03*
X225450000Y-89000000D03*
%TD*%
D12*
%TO.C,C101*%
X66500000Y-60000000D03*
D13*
X71500000Y-60000000D03*
%TD*%
D12*
%TO.C,C102*%
X78500000Y-60000000D03*
D13*
X83500000Y-60000000D03*
%TD*%
D12*
%TO.C,C103*%
X90500000Y-60000000D03*
D13*
X95500000Y-60000000D03*
%TD*%
D12*
%TO.C,C104*%
X102500000Y-60000000D03*
D13*
X107500000Y-60000000D03*
%TD*%
D12*
%TO.C,C105*%
X114500000Y-60000000D03*
D13*
X119500000Y-60000000D03*
%TD*%
D12*
%TO.C,C106*%
X126500000Y-60000000D03*
D13*
X131500000Y-60000000D03*
%TD*%
D12*
%TO.C,C107*%
X138500000Y-60000000D03*
D13*
X143500000Y-60000000D03*
%TD*%
D12*
%TO.C,C108*%
X150500000Y-60000000D03*
D13*
X155500000Y-60000000D03*
%TD*%
D12*
%TO.C,C109*%
X162500000Y-60000000D03*
D13*
X167500000Y-60000000D03*
%TD*%
D12*
%TO.C,C110*%
X174500000Y-60000000D03*
D13*
X179500000Y-60000000D03*
%TD*%
D12*
%TO.C,C111*%
X66500000Y-72000000D03*
D13*
X71500000Y-72000000D03*
%TD*%
D12*
%TO.C,C112*%
X78500000Y-72000000D03*
D13*
X83500000Y-72000000D03*
%TD*%
D12*
%TO.C,C113*%
X90500000Y-72000000D03*
D13*
X95500000Y-72000000D03*
%TD*%
D12*
%TO.C,C114*%
X102500000Y-72000000D03*
D13*
X107500000Y-72000000D03*
%TD*%
D12*
%TO.C,C115*%
X114500000Y-72000000D03*
D13*
X119500000Y-72000000D03*
%TD*%
D12*
%TO.C,C116*%
X126500000Y-72000000D03*
D13*
X131500000Y-72000000D03*
%TD*%
D12*
%TO.C,C117*%
X138500000Y-72000000D03*
D13*
X143500000Y-72000000D03*
%TD*%
D12*
%TO.C,C118*%
X150500000Y-72000000D03*
D13*
X155500000Y-72000000D03*
%TD*%
D12*
%TO.C,C119*%
X162500000Y-72000000D03*
D13*
X167500000Y-72000000D03*
%TD*%
D12*
%TO.C,C120*%
X174500000Y-72000000D03*
D13*
X179500000Y-72000000D03*
%TD*%
D12*
%TO.C,C121*%
X66500000Y-84000000D03*
D13*
X71500000Y-84000000D03*
%TD*%
D12*
%TO.C,C122*%
X78500000Y-84000000D03*
D13*
X83500000Y-84000000D03*
%TD*%
D12*
%TO.C,C123*%
X90500000Y-84000000D03*
D13*
X95500000Y-84000000D03*
%TD*%
D12*
%TO.C,C124*%
X102500000Y-84000000D03*
D13*
X107500000Y-84000000D03*
%TD*%
D12*
%TO.C,C125*%
X114500000Y-84000000D03*
D13*
X119500000Y-84000000D03*
%TD*%
D12*
%TO.C,C126*%
X126500000Y-84000000D03*
D13*
X131500000Y-84000000D03*
%TD*%
D12*
%TO.C,C127*%
X138500000Y-84000000D03*
D13*
X143500000Y-84000000D03*
%TD*%
D12*
%TO.C,C128*%
X150500000Y-84000000D03*
D13*
X155500000Y-84000000D03*
%TD*%
D12*
%TO.C,C129*%
X162500000Y-84000000D03*
D13*
X167500000Y-84000000D03*
%TD*%
D12*
%TO.C,C130*%
X174500000Y-84000000D03*
D13*
X179500000Y-84000000D03*
%TD*%
D12*
%TO.C,C131*%
X66500000Y-101000000D03*
D13*
X71500000Y-101000000D03*
%TD*%
D12*
%TO.C,C132*%
X78500000Y-101000000D03*
D13*
X83500000Y-101000000D03*
%TD*%
D12*
%TO.C,C133*%
X90500000Y-101000000D03*
D13*
X95500000Y-101000000D03*
%TD*%
D12*
%TO.C,C134*%
X102500000Y-101000000D03*
D13*
X107500000Y-101000000D03*
%TD*%
D12*
%TO.C,C135*%
X114500000Y-101000000D03*
D13*
X119500000Y-101000000D03*
%TD*%
D12*
%TO.C,C136*%
X126500000Y-101000000D03*
D13*
X131500000Y-101000000D03*
%TD*%
D12*
%TO.C,C137*%
X138500000Y-101000000D03*
D13*
X143500000Y-101000000D03*
%TD*%
D12*
%TO.C,C138*%
X150500000Y-101000000D03*
D13*
X155500000Y-101000000D03*
%TD*%
D12*
%TO.C,C139*%
X162500000Y-101000000D03*
D13*
X167500000Y-101000000D03*
%TD*%
D12*
%TO.C,C140*%
X174500000Y-101000000D03*
D13*
X179500000Y-101000000D03*
%TD*%
D12*
%TO.C,C141*%
X66500000Y-113000000D03*
D13*
X71500000Y-113000000D03*
%TD*%
D12*
%TO.C,C142*%
X78500000Y-113000000D03*
D13*
X83500000Y-113000000D03*
%TD*%
D12*
%TO.C,C143*%
X90500000Y-113000000D03*
D13*
X95500000Y-113000000D03*
%TD*%
D12*
%TO.C,C144*%
X102500000Y-113000000D03*
D13*
X107500000Y-113000000D03*
%TD*%
D12*
%TO.C,C145*%
X114500000Y-113000000D03*
D13*
X119500000Y-113000000D03*
%TD*%
D12*
%TO.C,C146*%
X126500000Y-113000000D03*
D13*
X131500000Y-113000000D03*
%TD*%
D12*
%TO.C,C147*%
X138500000Y-113000000D03*
D13*
X143500000Y-113000000D03*
%TD*%
D12*
%TO.C,C148*%
X150500000Y-113000000D03*
D13*
X155500000Y-113000000D03*
%TD*%
D12*
%TO.C,C149*%
X162500000Y-113000000D03*
D13*
X167500000Y-113000000D03*
%TD*%
D12*
%TO.C,C150*%
X174500000Y-113000000D03*
D13*
X179500000Y-113000000D03*
%TD*%
D12*
%TO.C,C151*%
X66500000Y-125000000D03*
D13*
X71500000Y-125000000D03*
%TD*%
D12*
%TO.C,C152*%
X78500000Y-125000000D03*
D13*
X83500000Y-125000000D03*
%TD*%
D12*
%TO.C,C153*%
X90500000Y-125000000D03*
D13*
X95500000Y-125000000D03*
%TD*%
D12*
%TO.C,C154*%
X102500000Y-125000000D03*
D13*
X107500000Y-125000000D03*
%TD*%
D12*
%TO.C,C155*%
X114500000Y-125000000D03*
D13*
X119500000Y-125000000D03*
%TD*%
D12*
%TO.C,C156*%
X126500000Y-125000000D03*
D13*
X131500000Y-125000000D03*
%TD*%
D12*
%TO.C,C157*%
X138500000Y-125000000D03*
D13*
X143500000Y-125000000D03*
%TD*%
D12*
%TO.C,C158*%
X150500000Y-125000000D03*
D13*
X155500000Y-125000000D03*
%TD*%
D12*
%TO.C,C159*%
X162500000Y-125000000D03*
D13*
X167500000Y-125000000D03*
%TD*%
D12*
%TO.C,C160*%
X174500000Y-125000000D03*
D13*
X179500000Y-125000000D03*
%TD*%
D14*
%TO.C,D1*%
X235500000Y-74150000D03*
X235500000Y-69850000D03*
%TD*%
%TO.C,D2*%
X235500000Y-89150000D03*
X235500000Y-84850000D03*
%TD*%
%TO.C,D3*%
X235500000Y-104150000D03*
X235500000Y-99850000D03*
%TD*%
%TO.C,D4*%
X235500000Y-119150000D03*
X235500000Y-114850000D03*
%TD*%
D15*
%TO.C,D5*%
X185425000Y-55730000D03*
X185425000Y-58270000D03*
X191575000Y-58270000D03*
X191575000Y-55730000D03*
%TD*%
D16*
%TO.C,D6*%
X185500000Y-133000000D03*
X189500000Y-133000000D03*
%TD*%
%TO.C,D7*%
X195500000Y-133000000D03*
X199500000Y-133000000D03*
%TD*%
D17*
%TO.C,D8*%
X192562500Y-62000000D03*
X194437500Y-62000000D03*
%TD*%
D18*
%TO.C,J1*%
X54500000Y-60000000D03*
D19*
X59500000Y-60000000D03*
%TD*%
D18*
%TO.C,J2*%
X54500000Y-97000000D03*
D19*
X59500000Y-97000000D03*
%TD*%
D20*
%TO.C,J3*%
X54500000Y-143000000D03*
D21*
X54500000Y-145540000D03*
X54500000Y-148080000D03*
X54500000Y-150620000D03*
X54500000Y-153160000D03*
%TD*%
D22*
%TO.C,Q1*%
X241500000Y-78000000D03*
D23*
X241500000Y-80540000D03*
X241500000Y-83080000D03*
%TD*%
D22*
%TO.C,Q2*%
X241500000Y-93000000D03*
D23*
X241500000Y-95540000D03*
X241500000Y-98080000D03*
%TD*%
D22*
%TO.C,Q3*%
X241500000Y-108000000D03*
D23*
X241500000Y-110540000D03*
X241500000Y-113080000D03*
%TD*%
D22*
%TO.C,Q4*%
X241500000Y-123000000D03*
D23*
X241500000Y-125540000D03*
X241500000Y-128080000D03*
%TD*%
D24*
%TO.C,Q5*%
X192562500Y-139050000D03*
X192562500Y-140950000D03*
X194437500Y-140000000D03*
%TD*%
%TO.C,Q6*%
X202562500Y-139050000D03*
X202562500Y-140950000D03*
X204437500Y-140000000D03*
%TD*%
%TO.C,Q7*%
X212562500Y-139050000D03*
X212562500Y-140950000D03*
X214437500Y-140000000D03*
%TD*%
%TO.C,Q8*%
X222562500Y-139050000D03*
X222562500Y-140950000D03*
X224437500Y-140000000D03*
%TD*%
D25*
%TO.C,R1*%
X220500000Y-90912500D03*
X220500000Y-89087500D03*
%TD*%
%TO.C,R2*%
X185587500Y-106000000D03*
X187412500Y-106000000D03*
%TD*%
%TO.C,R3*%
X185587500Y-114000000D03*
X187412500Y-114000000D03*
%TD*%
%TO.C,R4*%
X206500000Y-110912500D03*
X206500000Y-109087500D03*
%TD*%
%TO.C,R5*%
X204587500Y-135000000D03*
X206412500Y-135000000D03*
%TD*%
%TO.C,R6*%
X187587500Y-117000000D03*
X189412500Y-117000000D03*
%TD*%
%TO.C,R7*%
X188500000Y-127912500D03*
X188500000Y-126087500D03*
%TD*%
%TO.C,R8*%
X230587500Y-78000000D03*
X232412500Y-78000000D03*
%TD*%
%TO.C,R9*%
X230587500Y-93000000D03*
X232412500Y-93000000D03*
%TD*%
%TO.C,R10*%
X230587500Y-108000000D03*
X232412500Y-108000000D03*
%TD*%
%TO.C,R11*%
X192587500Y-147000000D03*
X194412500Y-147000000D03*
%TD*%
%TO.C,R12*%
X202587500Y-147000000D03*
X204412500Y-147000000D03*
%TD*%
%TO.C,R13*%
X212587500Y-147000000D03*
X214412500Y-147000000D03*
%TD*%
%TO.C,R14*%
X209587500Y-76000000D03*
X211412500Y-76000000D03*
%TD*%
%TO.C,R15*%
X209587500Y-130000000D03*
X211412500Y-130000000D03*
%TD*%
D26*
%TO.C,R16*%
X180537500Y-154000000D03*
X186462500Y-154000000D03*
%TD*%
%TO.C,R17*%
X194537500Y-154000000D03*
X200462500Y-154000000D03*
%TD*%
D25*
%TO.C,R18*%
X191587500Y-88000000D03*
X193412500Y-88000000D03*
%TD*%
%TO.C,R19*%
X191587500Y-102000000D03*
X193412500Y-102000000D03*
%TD*%
%TO.C,R20*%
X203587500Y-121000000D03*
X205412500Y-121000000D03*
%TD*%
%TO.C,R21*%
X207587500Y-105000000D03*
X209412500Y-105000000D03*
%TD*%
%TO.C,R22*%
X207587500Y-115000000D03*
X209412500Y-115000000D03*
%TD*%
D26*
%TO.C,R23*%
X208537500Y-154000000D03*
X214462500Y-154000000D03*
%TD*%
%TO.C,R24*%
X222537500Y-154000000D03*
X228462500Y-154000000D03*
%TD*%
D25*
%TO.C,R25*%
X184587500Y-62000000D03*
X186412500Y-62000000D03*
%TD*%
D27*
%TO.C,RV1*%
X54500000Y-80000000D03*
X56133330Y-72500000D03*
%TD*%
D25*
%TO.C,R_GB1*%
X229500000Y-73912500D03*
X229500000Y-72087500D03*
%TD*%
%TO.C,R_GB2*%
X229500000Y-88912500D03*
X229500000Y-87087500D03*
%TD*%
%TO.C,R_GB3*%
X229500000Y-103912500D03*
X229500000Y-102087500D03*
%TD*%
%TO.C,R_GB4*%
X229500000Y-118912500D03*
X229500000Y-117087500D03*
%TD*%
D26*
%TO.C,R_SHUNT*%
X190537500Y-127000000D03*
X196462500Y-127000000D03*
%TD*%
D28*
%TO.C,U1*%
X205637500Y-92075000D03*
X205637500Y-92725000D03*
X205637500Y-93375000D03*
X205637500Y-94025000D03*
X205637500Y-94675000D03*
X205637500Y-95325000D03*
X205637500Y-95975000D03*
X205637500Y-96625000D03*
X205637500Y-97275000D03*
X205637500Y-97925000D03*
X211362500Y-97925000D03*
X211362500Y-97275000D03*
X211362500Y-96625000D03*
X211362500Y-95975000D03*
X211362500Y-95325000D03*
X211362500Y-94675000D03*
X211362500Y-94025000D03*
X211362500Y-93375000D03*
X211362500Y-92725000D03*
X211362500Y-92075000D03*
%TD*%
D29*
%TO.C,U2*%
X225362500Y-83050000D03*
X225362500Y-84000000D03*
X225362500Y-84950000D03*
X227637500Y-84950000D03*
X227637500Y-83050000D03*
%TD*%
%TO.C,U3*%
X225362500Y-94050000D03*
X225362500Y-95000000D03*
X225362500Y-95950000D03*
X227637500Y-95950000D03*
X227637500Y-94050000D03*
%TD*%
%TO.C,U4*%
X212362500Y-126050000D03*
X212362500Y-127000000D03*
X212362500Y-127950000D03*
X214637500Y-127950000D03*
X214637500Y-126050000D03*
%TD*%
%TO.C,U5*%
X195362500Y-120050000D03*
X195362500Y-121000000D03*
X195362500Y-121950000D03*
X197637500Y-121950000D03*
X197637500Y-120050000D03*
%TD*%
D30*
%TO.C,U6*%
X196500000Y-110000000D03*
D31*
X196500000Y-112540000D03*
X196500000Y-115080000D03*
X204120000Y-115080000D03*
X204120000Y-112540000D03*
X204120000Y-110000000D03*
%TD*%
D22*
%TO.C,U7*%
X213500000Y-57000000D03*
D23*
X216040000Y-57000000D03*
X218580000Y-57000000D03*
%TD*%
D32*
%TO.C,U8*%
X195350000Y-76700000D03*
X195350000Y-79000000D03*
D33*
X201650000Y-79000000D03*
D32*
X195350000Y-81300000D03*
%TD*%
D29*
%TO.C,U9*%
X225362500Y-105050000D03*
X225362500Y-106000000D03*
X225362500Y-106950000D03*
X227637500Y-106950000D03*
X227637500Y-105050000D03*
%TD*%
%TO.C,U10*%
X225362500Y-116050000D03*
X225362500Y-117000000D03*
X225362500Y-117950000D03*
X227637500Y-117950000D03*
X227637500Y-116050000D03*
%TD*%
D34*
%TO.C,H1*%
X52500000Y-49000000D03*
%TD*%
%TO.C,H2*%
X244500000Y-49000000D03*
%TD*%
%TO.C,H3*%
X52500000Y-161000000D03*
%TD*%
%TO.C,H4*%
X244500000Y-161000000D03*
%TD*%
M02*
